<svg id="visual" viewBox="0 0 1920 1080" width="1920" height="1080" xmlns="http://www.w3.org/2000/svg" xmlns:xlink="http://www.w3.org/1999/xlink" version="1.1"><rect x="0" y="0" width="1920" height="1080" fill="#FFFFFF"></rect><defs><linearGradient id="grad1_0" x1="43.8%" y1="0%" x2="100%" y2="100%"><stop offset="14.444444444444446%" stop-color="#ffffff" stop-opacity="1"></stop><stop offset="85.55555555555554%" stop-color="#ffffff" stop-opacity="1"></stop></linearGradient></defs><defs><linearGradient id="grad2_0" x1="0%" y1="0%" x2="56.3%" y2="100%"><stop offset="14.444444444444446%" stop-color="#ffffff" stop-opacity="1"></stop><stop offset="85.55555555555554%" stop-color="#ffffff" stop-opacity="1"></stop></linearGradient></defs><g transform="translate(1920, 0)"><path d="M0 864C-85.5 790.7 -171 717.5 -285.1 688.3C-399.2 659.1 -541.8 673.9 -610.9 610.9C-680.1 548 -675.9 407.2 -705.8 292.4C-735.8 177.6 -799.9 88.8 -864 0L0 0Z" fill="#bd8bfc"></path></g><g transform="translate(0, 1080)"><path d="M0 -864C106.2 -820.5 212.4 -777 299.6 -723.4C386.9 -669.8 455.1 -606 543.8 -543.8C632.4 -481.6 741.5 -421 798.2 -330.6C855 -240.3 859.5 -120.1 864 0L0 0Z" fill="#bd8bfc"></path></g></svg>