<?xml version="1.0" encoding="UTF-8"?>
<svg width="260.13" height="260.13" version="1.1" viewBox="0 0 260.13 260.13" xml:space="preserve" xmlns="http://www.w3.org/2000/svg" xmlns:cc="http://creativecommons.org/ns#" xmlns:dc="http://purl.org/dc/elements/1.1/" xmlns:rdf="http://www.w3.org/1999/02/22-rdf-syntax-ns#"><metadata><rdf:RDF><cc:Work rdf:about=""><dc:format>image/svg+xml</dc:format><dc:type rdf:resource="http://purl.org/dc/dcmitype/StillImage"/><dc:title/></cc:Work></rdf:RDF></metadata><defs><clipPath id="clipPath44"><path d="m1704 609.68h812.9v812.9h-812.9z" clip-rule="evenodd"/></clipPath></defs><g transform="matrix(.32 0 0 .32 -545.27 -195.1)"><g clip-path="url(#clipPath44)"><g transform="matrix(22.581 0 0 22.581 1704 609.68)"><path d="m36 18c0 9.941-8.059 18-18 18-9.94 0-18-8.059-18-18 0-9.94 8.06-18 18-18 9.941 0 18 8.06 18 18" fill="#ffcc4d"/><path d="m17.312 17.612c-0.176-0.143-0.427-0.147-0.61-0.014-0.012 9e-3 -1.26 0.902-3.702 0.902-2.441 0-3.69-0.893-3.7-0.9-0.183-0.137-0.435-0.133-0.611 9e-3 -0.178 0.142-0.238 0.386-0.146 0.594 0.06 0.135 1.5 3.297 4.457 3.297 2.958 0 4.397-3.162 4.457-3.297 0.091999-0.207 0.031999-0.449-0.145-0.591zm10 0c-0.176-0.143-0.426-0.148-0.61-0.014-0.012 9e-3 -1.261 0.902-3.702 0.902-2.44 0-3.69-0.893-3.7-0.9-0.183-0.137-0.434-0.133-0.611 9e-3 -0.178 0.142-0.238 0.386-0.146 0.594 0.06 0.135 1.5 3.297 4.457 3.297 2.958 0 4.397-3.162 4.457-3.297 0.091999-0.207 0.031999-0.449-0.145-0.591zm-5.312 10.388h-8c-0.552 0-1-0.447-1-1s0.448-1 1-1h8c0.553 0 1 0.447 1 1s-0.447 1-1 1zm-16-14c-0.552 0-1-0.448-1-1 0-0.551 0.445-0.998 0.996-1 0.156-2e-3 3.569-0.086 6.205-3.6 0.331-0.44 0.957-0.532 1.4-0.2 0.442 0.331 0.531 0.958 0.2 1.4-3.263 4.35-7.617 4.4-7.801 4.4zm24 0c-0.184 0-4.537-0.05-7.8-4.4-0.332-0.442-0.242-1.069 0.2-1.4 0.441-0.333 1.067-0.242 1.399 0.2 2.641 3.521 6.061 3.599 6.206 3.6 0.55 6e-3 0.994 0.456 0.991 1.005-0.002001 0.551-0.446 0.995-0.996 0.995z" fill="#664500"/></g></g></g></svg>
